<svg xmlns="http://www.w3.org/2000/svg" version="1.1" viewBox="0 0 768 1024" xmlns:xlink="http://www.w3.org/1999/xlink">
    <g transform="translate(0,-28.36218)" style="fill:#fff;">
        <path d="m 92.53125,62.174683 0,2.25 22.78125,0 c 1.31244,0.187556 2.06244,1.125055 2.25,2.8125 -0.18756,1.687551 -0.93756,2.531301 -2.25,2.53125 l -22.78125,0 0,3.09375 23.90625,0 c 4.49993,4.7e-5 6.46868,1.875046 5.90625,5.625 -0.18757,1.87504 -0.84382,4.031288 -1.96875,6.46875 -0.93756,1.500034 -2.15631,1.968783 -3.65625,1.40625 -1.31256,-0.749965 -1.68756,-1.968714 -1.125,-3.65625 -6e-5,-0.187462 0.0937,-0.562462 0.28125,-1.125 0.18744,-0.562461 0.37494,-1.21871 0.5625,-1.96875 0.18744,-0.749959 0.18744,-1.218708 0,-1.40625 -6e-5,-0.374958 -0.37506,-0.562457 -1.125,-0.5625 l -47.8125,0 c -1.500011,4.3e-5 -2.156261,0.750042 -1.96875,2.25 l 0,4.78125 c -0.187511,1.687534 -1.12501,2.625033 -2.8125,2.8125 -1.875006,-0.187467 -2.812505,-1.031216 -2.8125,-2.53125 l 0,-7.03125 c -0.562505,-3.562454 1.499993,-5.249952 6.1875,-5.0625 l 20.53125,0 0,-10.40625 c 1.687466,-2.999939 3.656214,-3.093689 5.90625,-0.28125 z m 18.5625,18 c 1.12494,0.18754 1.78119,0.937539 1.96875,2.25 -0.18756,1.500036 -0.84381,2.250036 -1.96875,2.25 l -41.0625,0 c -1.500014,3.6e-5 -2.343763,-0.656214 -2.53125,-1.96875 -1.3e-5,-1.499961 0.749986,-2.34371 2.25,-2.53125 z m -2.25,5.34375 c 5.06244,1.500033 9.28119,3.187532 12.65625,5.0625 1.31243,0.937529 1.59368,2.250027 0.84375,3.9375 -0.75007,1.500024 -1.87507,1.875024 -3.375,1.125 -3.56256,-1.874973 -7.31256,-3.374972 -11.25,-4.5 -1.68755,-0.37497 -2.43755,-1.406219 -2.25,-3.09375 0.56245,-1.874966 1.68745,-2.718715 3.375,-2.53125 z m -18.28125,0.84375 c 0.374964,3.4e-5 2.249962,0.843783 5.625,2.53125 11.06245,5.625026 20.15619,9.187522 27.28125,10.6875 1.49993,0.562517 2.15618,1.781267 1.96875,3.656247 -0.56257,1.68752 -1.68757,2.34377 -3.375,1.96875 -0.37507,2e-5 -0.93757,-0.0937 -1.6875,-0.28125 -2.06256,-0.56248 -3.65631,-1.21873 -4.78125,-1.96875 l 0,19.6875 c 0.18744,3.5625 -1.31256,5.25 -4.5,5.0625 l -39.09375,0 c -4.125013,0.1875 -6.000011,-1.40625 -5.625,-4.78125 l 0,-19.6875 c -1.312511,0.75002 -3.843758,1.50002 -7.59375,2.25 -3.187501,-1.31248 -3.562501,-3.28123 -1.125,-5.906247 9.187488,-1.499978 18.656228,-5.156224 28.40625,-10.96875 2.437466,-1.499967 3.937465,-2.249966 4.5,-2.25 z m 0.28125,5.625 c -0.375036,2.8e-5 -1.312535,0.468778 -2.8125,1.40625 -3.37503,2.062525 -6.656277,3.656273 -9.84375,4.78125 l 26.71875,0 c -3.93755,-1.312477 -7.312543,-2.718725 -10.125,-4.21875 -2.062538,-1.124973 -3.375037,-1.781222 -3.9375,-1.96875 z M 73.6875,102.95593 c -1.312518,2e-5 -1.875017,0.37502 -1.6875,1.125 l 0,2.8125 37.96875,0 0,-2.8125 c -6e-5,-0.74998 -0.56255,-1.12498 -1.6875,-1.125 z m 36.28125,8.15625 -37.96875,0 0,3.9375 37.96875,0 z M 72,119.54968 l 0,1.6875 c -0.187517,1.125 0.374982,1.6875 1.6875,1.6875 l 34.59375,0 c 1.12495,0 1.68744,-0.46875 1.6875,-1.40625 l 0,-1.96875 z m 1.6875,-29.249997 c -3.750015,2.437528 -7.875011,4.031276 -12.375,4.78125 -3.187504,-1.124974 -3.562503,-2.906222 -1.125,-5.34375 4.12499,-0.749969 7.687487,-2.062467 10.6875,-3.9375 1.312482,-0.562465 2.437481,-0.187465 3.375,1.125 0.74998,1.500032 0.56248,2.625031 -0.5625,3.375 z"/>
        <path d="m 138.375,63.580933 9.28125,0 c 3.93747,-0.187443 5.81247,1.968805 5.625,6.46875 l 0,52.593747 c 0.93747,5.81249 -2.90627,7.96874 -11.53125,6.46875 -1.87501,-0.37501 -2.81251,-1.5 -2.8125,-3.375 0.37499,-1.6875 1.49999,-2.34375 3.375,-1.96875 4.49998,0.9375 6.46873,0.28125 5.90625,-1.96875 l 0,-15.75 -10.6875,0 c -0.18751,2.25001 -0.37501,4.21876 -0.5625,5.90625 -0.18751,6.375 -1.21876,11.625 -3.09375,15.75 -1.12501,1.87499 -2.53125,2.62499 -4.21875,2.25 -1.5,-0.93751 -1.78125,-2.34375 -0.84375,-4.21875 1.3125,-3.1875 2.25,-6.9375 2.8125,-11.25 0.56249,-4.31249 0.84374,-10.40623 0.84375,-18.281247 l 0,-26.71875 c -0.56251,-4.312445 1.40624,-6.281193 5.90625,-5.90625 z m 42.75,0 0,12.9375 12.65625,0 c 1.68743,0.187544 2.53118,1.125043 2.53125,2.8125 -0.18757,1.687539 -1.12507,2.531288 -2.8125,2.53125 l -12.375,0 0,16.03125 11.8125,0 c 1.68743,0.187522 2.62493,1.125021 2.8125,2.812497 -0.18757,1.68752 -1.21882,2.53127 -3.09375,2.53125 l -11.53125,0 0,18.84375 14.0625,0 c 1.68743,0 2.53118,0.84375 2.53125,2.53125 -0.18757,1.6875 -1.12507,2.625 -2.8125,2.8125 l -33.75,0 c -1.87503,-0.1875 -2.90628,-1.125 -3.09375,-2.8125 -3e-5,-1.6875 0.93747,-2.53125 2.8125,-2.53125 l 14.625,0 0,-18.84375 -12.09375,0 c -2.06253,2e-5 -3.18753,-0.84373 -3.375,-2.53125 0.18747,-1.687476 1.31247,-2.624975 3.375,-2.812497 l 12.09375,0 0,-16.03125 -9.84375,0 c -0.75004,2.625036 -2.15629,5.718783 -4.21875,9.28125 -1.31253,1.875027 -2.71878,2.437527 -4.21875,1.6875 -1.50003,-0.937472 -1.68753,-2.43747 -0.5625,-4.5 3.37497,-5.624962 5.24996,-11.812456 5.625,-18.5625 0.18746,-2.062447 1.12496,-3.093696 2.8125,-3.09375 1.87496,0.375053 2.81246,1.500052 2.8125,3.375 -0.18754,0.37505 -0.46879,2.531298 -0.84375,6.46875 l 8.4375,0 0,-12.9375 c -5e-5,-1.687442 0.93745,-2.624941 2.8125,-2.8125 1.68745,0.187559 2.62495,1.125058 2.8125,2.8125 z m -43.59375,23.625 0,14.062497 10.6875,0 0,-14.062497 z M 139.5,68.362183 c -1.50001,0.187552 -2.15626,0.843801 -1.96875,1.96875 l 0,12.09375 10.6875,0 0,-12.09375 c -2e-5,-1.124949 -0.56252,-1.781198 -1.6875,-1.96875 z"/>
        <path d="m 218.25,65.830933 c -1.87502,2.812552 -4.78126,6.187548 -8.71875,10.125 2.43749,4.4e-5 5.62498,4.4e-5 9.5625,0 3.74998,-0.187455 6.56247,-0.374955 8.4375,-0.5625 -1.68753,-2.062453 -3.00003,-3.843701 -3.9375,-5.34375 -1.12502,-1.312448 -1.12502,-2.531197 0,-3.65625 1.31247,-0.937445 2.62497,-0.749945 3.9375,0.5625 3.56247,4.312549 6.65621,8.906294 9.28125,13.78125 0.56246,1.687538 0.18746,2.906287 -1.125,3.65625 -1.31254,0.750035 -2.43753,0.375036 -3.375,-1.125 -0.37503,-0.562462 -0.75003,-1.124962 -1.125,-1.6875 -0.18753,-0.374961 -0.37503,-0.749961 -0.5625,-1.125 -9.00002,0.562539 -17.34376,0.750039 -25.03125,0.5625 -2.4375,3.9e-5 -3.84375,-0.56246 -4.21875,-1.6875 -0.5625,-1.124958 0,-2.531207 1.6875,-4.21875 3.74999,-3.749951 7.31249,-7.968697 10.6875,-12.65625 0.93748,-1.312441 2.15623,-1.499941 3.65625,-0.5625 1.49998,1.125057 1.78123,2.437556 0.84375,3.9375 z m 25.03125,-1.125 0,9.28125 c 5.81245,-1.499952 11.90619,-3.93745 18.28125,-7.3125 1.68744,-0.562446 2.90618,-0.0937 3.65625,1.40625 0.56243,1.500051 -7e-5,2.718799 -1.6875,3.65625 -6.18756,3.187545 -12.93755,5.625043 -20.25,7.3125 l 0,8.15625 c -0.18754,1.875031 1.0312,2.81253 3.65625,2.8125 l 9.5625,0 c 3.56244,0.75003 5.62494,-1.687468 6.1875,-7.3125 0.18744,-1.687461 1.12493,-2.43746 2.8125,-2.25 1.49993,0.375039 2.15618,1.500038 1.96875,3.375 -0.18757,7.687529 -3.84382,11.343775 -10.96875,10.96875 l -9.5625,0 c -6.00004,0.187525 -8.90629,-2.156222 -8.71875,-7.03125 l 0,-23.0625 c -4e-5,-1.687443 0.84371,-2.624942 2.53125,-2.8125 1.49996,0.187558 2.34371,1.125057 2.53125,2.8125 z m -33.75,19.6875 17.71875,0 c 2.99997,0.562535 4.78122,2.343784 5.34375,5.34375 l 0,32.624997 c -0.75003,5.8125 -5.62503,7.31249 -14.625,4.5 -2.06252,-0.75 -3.00002,-1.875 -2.8125,-3.375 0.56248,-1.6875 1.87498,-2.25 3.9375,-1.6875 5.24997,1.875 8.06247,1.78125 8.4375,-0.28125 l 0,-9.5625 -18.5625,0 0,13.21875 c -0.18751,1.5 -1.03126,2.34375 -2.53125,2.53125 -1.68751,-0.1875 -2.53126,-1.03125 -2.53125,-2.53125 l 0,-35.156247 c 0.18749,-3.562466 2.06249,-5.437464 5.625,-5.625 z m 1.125,4.78125 c -1.12501,3.1e-5 -1.68751,0.468781 -1.6875,1.40625 l 0,5.34375 18.5625,0 0,-5.34375 c -0.18753,-0.74997 -0.65628,-1.218719 -1.40625,-1.40625 z m -1.6875,11.249997 0,7.03125 18.5625,0 0,-7.03125 z m 34.3125,-0.843747 0,7.593747 c 5.81245,-1.49998 11.90619,-3.93748 18.28125,-7.312497 1.68744,-0.562479 2.90618,-0.09373 3.65625,1.406247 0.56243,1.50002 -7e-5,2.71877 -1.6875,3.65625 -6.18756,3.18752 -12.93755,5.53126 -20.25,7.03125 l 0,8.15625 c -0.18754,1.5 1.0312,2.34375 3.65625,2.53125 l 9.5625,0 c 3.56244,0.5625 5.62494,-1.78125 6.1875,-7.03125 0.18744,-1.68749 1.12493,-2.34374 2.8125,-1.96875 1.49993,0.37501 2.15618,1.50001 1.96875,3.375 -0.37507,7.125 -4.03131,10.59375 -10.96875,10.40625 l -9.5625,0 c -6.00004,0 -8.90629,-2.25 -8.71875,-6.75 l 0,-21.093747 c -4e-5,-1.687478 0.84371,-2.624977 2.53125,-2.8125 1.49996,0.187523 2.34371,1.125022 2.53125,2.8125 z"/>
      <path d="m 303.75,90.580933 c -0.56253,-0.37497 -0.93753,-0.74997 -1.125,-1.125 -2.06253,6.000025 -4.31253,11.343767 -6.75,16.031247 2.43747,2.81251 5.15622,6.09376 8.15625,9.84375 1.12497,1.87501 0.93747,3.375 -0.5625,4.5 -1.68753,0.75 -3.09378,0.46875 -4.21875,-0.84375 -2.43753,-3.56249 -4.59377,-6.28124 -6.46875,-8.15625 -3.75002,5.62501 -8.34376,10.875 -13.78125,15.75 -1.68751,1.3125 -3.18751,1.3125 -4.5,0 -1.125,-1.5 -0.9375,-3 0.5625,-4.5 5.43749,-3.93749 10.12499,-9.18749 14.0625,-15.75 -2.25002,-2.43748 -4.87501,-5.53123 -7.875,-9.281247 -0.93751,1.312522 -1.87501,2.343771 -2.8125,3.093747 -1.68751,1.31252 -3.1875,1.50002 -4.5,0.5625 -1.125,-1.499976 -1.03125,-2.999974 0.28125,-4.499997 4.87499,-4.874971 8.34374,-10.406216 10.40625,-16.59375 0.37499,-1.687458 1.49998,-2.343707 3.375,-1.96875 1.68748,0.562542 2.34373,1.781291 1.96875,3.65625 -1.68752,3.937535 -3.46877,7.687531 -5.34375,11.25 2.62498,3.187525 5.06248,6.000022 7.3125,8.437497 2.24998,-3.937474 4.49997,-9.468718 6.75,-16.593747 -0.93753,-1.124963 -1.78128,-2.249962 -2.53125,-3.375 -1.12502,-1.12496 -1.03127,-2.249958 0.28125,-3.375 1.49997,-0.937456 2.81247,-0.843707 3.9375,0.28125 4.12497,5.250037 6.37496,8.250034 6.75,9 0.18746,0.187533 0.37496,0.281283 0.5625,0.28125 0.74996,1.687531 0.56246,3.09378 -0.5625,4.21875 -1.31254,0.937528 -2.43753,0.656278 -3.375,-0.84375 z m 14.34375,-26.15625 -0.28125,5.34375 19.6875,0 c 1.68743,0.18755 2.53118,1.218799 2.53125,3.09375 -0.18757,1.687546 -1.12507,2.531295 -2.8125,2.53125 l -2.8125,0 c -0.18756,13.500031 -2.62506,24.56252 -7.3125,33.187497 2.06244,3.56251 6.28119,7.78126 12.65625,12.65625 1.31243,1.3125 1.31243,2.8125 0,4.5 -1.12507,1.3125 -2.53132,1.40625 -4.21875,0.28125 -3.93756,-3.1875 -7.96881,-7.21875 -12.09375,-12.09375 -5.81255,6.375 -10.78129,10.59375 -14.90625,12.65625 -2.25004,0.75 -3.75003,0.375 -4.5,-1.125 -0.75003,-1.6875 -0.18753,-3 1.6875,-3.9375 6.18746,-3.1875 10.9687,-7.40624 14.34375,-12.65625 -3.00005,-6.74998 -4.96879,-13.031223 -5.90625,-18.843747 -0.75004,2.812527 -1.96879,5.718775 -3.65625,8.71875 -1.31254,2.062517 -2.81254,2.718767 -4.5,1.968747 -1.50003,-1.124976 -1.59378,-2.718725 -0.28125,-4.781247 4.31246,-7.874968 6.56246,-18.468707 6.75,-31.78125 -4e-5,-1.687442 0.93746,-2.624941 2.8125,-2.8125 1.68745,0.187559 2.62495,1.218808 2.8125,3.09375 z m 10.6875,10.96875 -11.53125,0 c -5e-5,1.312544 -0.0938,2.156293 -0.28125,2.53125 2.06245,11.250031 4.2187,19.593773 6.46875,25.031247 3.74994,-7.687472 5.53119,-16.874963 5.34375,-27.562497 z m -22.5,-5.90625 c 1.68746,0.187551 2.62496,1.12505 2.8125,2.8125 -0.18754,1.875046 -1.12504,2.812545 -2.8125,2.8125 l -28.6875,0 c -1.68751,4.5e-5 -2.625,-0.843704 -2.8125,-2.53125 0,-1.87495 0.84374,-2.906199 2.53125,-3.09375 l 12.375,0 c -0.93752,-1.687448 -1.68752,-2.999946 -2.25,-3.9375 -0.93752,-1.687444 -0.56252,-2.999942 1.125,-3.9375 1.68748,-0.749941 3.09373,-0.374941 4.21875,1.125 -2e-5,0.375057 0.18748,0.843807 0.5625,1.40625 1.31248,2.437554 2.34372,4.218802 3.09375,5.34375 z"/>
    </g>
    <text xml:space="preserve">
        <!-- <tspan x="54" y="20" style="font-size:72px;font-weight:bold;">睿胜能效</tspan> -->
        <tspan x="54" y="170" style="font-size:54px;">致力于成为行业内值得信赖</tspan>
        <tspan x="54" y="240" style="font-size:54px;">受人尊敬的管理节能专家</tspan>
    </text>

    <path id="path1-1" style="fill:#ffd901;" d="M409.09,768.06c-123.42-2.84-240.77-22.95-375.19-64.31l-32.575-10.03,0.00226-30.238c0.00124-16.631,0.45614-53.763,1.0109-82.516l1.0086-52.278,18.327,10.51c170.86,97.986,412.46,155.61,634.99,151.44,47.579-0.89094,84.305-3.1877,117.18-7.3283,9.6424-1.2143,19.128-2.2079,21.078-2.2079h3.5466v22.857c0,12.571-0.34999,22.857-0.77775,22.857-0.42777,0-10.258,1.9742-21.845,4.3871-93.494,19.47-179.19,31.275-257.91,35.53-39.402,2.1297-61.823,2.4021-108.84,1.3224z"/>

    <image xlink:href="../../../wasion/img/jqr.png" height="750" width="750" y="240" x="10" />

    <text style="font-size:32px;fill:#000;font-weight:bold;" xml:space="preserve" y="1024" x="40">Resp已经坚定地踏上了能效业务探索求真的道路</text>
</svg>